<svg width="40" height="40" viewBox="0 0 40 40" fill="none" xmlns="http://www.w3.org/2000/svg">
<g clip-path="url(#clip0_24531_5473)">
<path d="M26.3 36.6667V23.7667H30.6204L31.2667 18.7519H26.3V15.5519C26.3 14.1 26.7037 13.1093 28.7852 13.1093H31.4408V8.62408C30.1552 8.48769 28.8632 8.42154 27.5704 8.42594C23.7426 8.42594 21.1223 10.763 21.1223 15.0556V18.7519H16.7926V23.7667H21.1223V36.6667H5.18523C4.69408 36.6667 4.22306 36.4716 3.87577 36.1243C3.52848 35.777 3.33337 35.306 3.33337 34.8148V5.1852C3.33337 4.69405 3.52848 4.22303 3.87577 3.87574C4.22306 3.52845 4.69408 3.33334 5.18523 3.33334H34.8149C35.306 3.33334 35.777 3.52845 36.1243 3.87574C36.4716 4.22303 36.6667 4.69405 36.6667 5.1852V34.8148C36.6667 35.306 36.4716 35.777 36.1243 36.1243C35.777 36.4716 35.306 36.6667 34.8149 36.6667H26.3Z" fill="#A1A6B4"/>
</g>
<defs>
<clipPath id="clip0_24531_5473">
<rect width="40" height="40" fill="white"/>
</clipPath>
</defs>
</svg>
